<svg xmlns="http://www.w3.org/2000/svg" xmlns:xlink="http://www.w3.org/1999/xlink" id="Layer_1" x="0" y="0" enable-background="new 0 0 328.5 328.5" version="1.1" viewBox="0 0 328.5 328.5" xml:space="preserve"><g id="XMLID_25_"><circle id="XMLID_41_" cx="164.3" cy="161.1" r="141.3" fill="#31A4BF"/><g id="XMLID_45_"><rect id="XMLID_24_" width="112.5" height="15" x="91.7" y="138.8" fill="#FFF"/><rect id="XMLID_23_" width="112.5" height="15" x="91.7" y="168.8" fill="#FFF"/><path id="XMLID_22_" fill="#FFF" d="M178.1,242.6c-0.6,0-1.2,0-1.7,0c-13.2-0.3-27.9-4.6-36.7-10.9 c-11.8-8.4-20.2-19.1-25.5-32.5c-6.1-15.3-7.9-36.5-4.8-58c3.3-23.2,15.8-41.6,35.2-51.8c8.9-4.7,18.2-6.9,26.1-8.6 c22.6-4.8,44.4,5.7,45.3,6.2l-8.3,16.8c-0.2-0.1-16.9-8.1-33.1-4.6c-7,1.5-14.4,3.3-21.3,6.9c-9.8,5.2-22.2,15.9-25.3,37.8 c-2.6,18.4-1.3,36,3.6,48.4c4.1,10.1,10.1,17.8,19,24.2c4.9,3.5,15.5,7.2,26.2,7.4c14.8,0.3,29.2-3.7,31.9-5.4 c-0.1,0.1-0.2,0.2-0.3,0.2l12.2,14.2C213.8,238.8,193.2,242.6,178.1,242.6z"/></g></g></svg>